<svg id="color_1_" enable-background="new 0 0 24 24" height="48" viewBox="0 0 24 24" width="48" xmlns="http://www.w3.org/2000/svg"><g fill="#607d8b"><path d="m20.75 7.5c-.123 0-.246-.029-.361-.093l-7.42-4.08c-.363-.2-.496-.655-.296-1.019.2-.363.655-.496 1.019-.296l7.42 4.08c.363.2.496.655.296 1.019-.137.248-.394.389-.658.389z"/><path d="m3.251 7.5c-.265 0-.521-.141-.658-.389-.2-.363-.067-.818.296-1.019l7.42-4.08c.364-.198.818-.067 1.019.296.2.363.067.818-.296 1.019l-7.42 4.08c-.115.064-.239.093-.361.093z"/><path d="m12 0c-1.103 0-2 .896-2 2s.897 2 2 2 2-.896 2-2-.897-2-2-2z"/></g><path d="m24 8.5v12.75c0 1.52-1.23 2.75-2.75 2.75h-18.5c-.25 0-.49-.03-.71-.1-1.18-.31-2.04-1.38-2.04-2.65v-12.5c0-1.52 1.23-2.75 2.75-2.75h18.5c1.59 0 2.75 1.05 2.75 2.5z" fill="#eceff1"/><path d="m10.008 2.178-6.951 3.822h3.113l4.523-2.487c-.382-.33-.638-.803-.685-1.335z" fill="#546d79"/><path d="m12 0c-1.103 0-2 .896-2 2 0 .06.003.119.008.178.047.532.303 1.005.685 1.335.351.303.808.487 1.307.487z" fill="#546d79"/><path d="m12 6h-5.829-3.114-.307c-1.52 0-2.75 1.23-2.75 2.75v12.5c0 1.27.86 2.34 2.04 2.65.22.07.46.1.71.1h9.25z" fill="#cdd0d2"/><path d="m24 18.94v2.31c0 1.52-1.23 2.75-2.75 2.75h-18.5c-.25 0-.49-.03-.71-.1l12.22-12.22c.68-.68 1.8-.68 2.48 0z" fill="#388e3c"/><path d="m15.5 11.17c-.45 0-.9.17-1.24.51l-12.22 12.22c.22.07.46.1.71.1h12.764v-12.83c-.005 0-.009 0-.014 0z" fill="#317c34"/><path d="m5 9c-1.103 0-2 .896-2 2 0 1.103.897 2 2 2s2-.896 2-2-.897-2-2-2z" fill="#ffc107"/><path d="m5 9c-1.103 0-2 .896-2 2 0 1.103.897 2 2 2z" fill="#dea806"/><path d="m17.06 24h-14.31c-.25 0-.49-.03-.71-.1-1.18-.31-2.04-1.38-2.04-2.65v-.31l5.76-5.761c.68-.68 1.8-.68 2.48 0z" fill="#4caf50"/><path d="m7 14.67c-.45 0-.9.17-1.24.51l-5.76 5.76v.31c0 1.27.86 2.34 2.04 2.65.22.07.46.1.71.1h4.25z" fill="#429846"/></svg>